HIERARCHY
ROOT mixamorig:Hips
{
	OFFSET -0.000008 104.274872 1.554316
	CHANNELS 6 Xposition Yposition Zposition Xrotation Yrotation Zrotation
	JOINT mixamorig:Spine
	{
		OFFSET -0.000005 10.181595 0.131519
		CHANNELS 6 Xposition Yposition Zposition Xrotation Yrotation Zrotation
		JOINT mixamorig:Spine1
		{
			OFFSET -0.000000 9.893959 -1.470707
			CHANNELS 6 Xposition Yposition Zposition Xrotation Yrotation Zrotation
			JOINT mixamorig:Spine2
			{
				OFFSET -0.000000 9.220757 -1.370641
				CHANNELS 6 Xposition Yposition Zposition Xrotation Yrotation Zrotation
				JOINT mixamorig:Neck
				{
					OFFSET 0.000001 16.740417 -2.049036
					CHANNELS 6 Xposition Yposition Zposition Xrotation Yrotation Zrotation
					JOINT mixamorig:Head
					{
						OFFSET 0.000000 9.617874 1.685006
						CHANNELS 6 Xposition Yposition Zposition Xrotation Yrotation Zrotation
						JOINT mixamorig:HeadTop_End
						{
							OFFSET 0.000002 22.037354 7.501101
							CHANNELS 6 Xposition Yposition Zposition Xrotation Yrotation Zrotation
							End Site
							{
								OFFSET 0.000168 2310.654297 -282.823242
							}
						}
					}
				}
				JOINT mixamorig:RightShoulder
				{
					OFFSET -4.569970 11.014908 -2.160885
					CHANNELS 6 Xposition Yposition Zposition Xrotation Yrotation Zrotation
					JOINT mixamorig:RightArm
					{
						OFFSET -10.592851 -0.524811 -2.232101
						CHANNELS 6 Xposition Yposition Zposition Xrotation Yrotation Zrotation
						JOINT mixamorig:RightForeArm
						{
							OFFSET -27.841511 0.000031 -0.000004
							CHANNELS 6 Xposition Yposition Zposition Xrotation Yrotation Zrotation
							JOINT mixamorig:RightHand
							{
								OFFSET -28.328831 -0.000015 0.000015
								CHANNELS 6 Xposition Yposition Zposition Xrotation Yrotation Zrotation
								JOINT mixamorig:RightHandThumb1
								{
									OFFSET -2.464806 -1.573990 2.681852
									CHANNELS 6 Xposition Yposition Zposition Xrotation Yrotation Zrotation
									JOINT mixamorig:RightHandThumb2
									{
										OFFSET -3.215179 -1.872803 1.924282
										CHANNELS 6 Xposition Yposition Zposition Xrotation Yrotation Zrotation
										JOINT mixamorig:RightHandThumb3
										{
											OFFSET -2.654831 -1.527969 1.512609
											CHANNELS 6 Xposition Yposition Zposition Xrotation Yrotation Zrotation
											JOINT mixamorig:RightHandThumb4
											{
												OFFSET -2.018814 -1.152008 1.108052
												CHANNELS 6 Xposition Yposition Zposition Xrotation Yrotation Zrotation
												End Site
												{
													OFFSET -188.809540 -114.533607 132.431396
												}
											}
										}
									}
								}
								JOINT mixamorig:RightHandIndex1
								{
									OFFSET -9.108284 -0.517868 2.259835
									CHANNELS 6 Xposition Yposition Zposition Xrotation Yrotation Zrotation
									JOINT mixamorig:RightHandIndex2
									{
										OFFSET -3.699989 0.000000 0.001215
										CHANNELS 6 Xposition Yposition Zposition Xrotation Yrotation Zrotation
										JOINT mixamorig:RightHandIndex3
										{
											OFFSET -2.850006 0.000031 -0.000522
											CHANNELS 6 Xposition Yposition Zposition Xrotation Yrotation Zrotation
											JOINT mixamorig:RightHandIndex4
											{
												OFFSET -2.772186 -0.000015 -0.000020
												CHANNELS 6 Xposition Yposition Zposition Xrotation Yrotation Zrotation
												End Site
												{
													OFFSET -277.218445 0.000000 -0.050231
												}
											}
										}
									}
								}
								JOINT mixamorig:RightHandMiddle1
								{
									OFFSET -9.532516 -0.000031 -0.000023
									CHANNELS 6 Xposition Yposition Zposition Xrotation Yrotation Zrotation
									JOINT mixamorig:RightHandMiddle2
									{
										OFFSET -3.700005 -0.000015 0.003713
										CHANNELS 6 Xposition Yposition Zposition Xrotation Yrotation Zrotation
										JOINT mixamorig:RightHandMiddle3
										{
											OFFSET -2.949974 0.000015 -0.002054
											CHANNELS 6 Xposition Yposition Zposition Xrotation Yrotation Zrotation
											JOINT mixamorig:RightHandMiddle4
											{
												OFFSET -2.946640 0.000000 -0.000156
												CHANNELS 6 Xposition Yposition Zposition Xrotation Yrotation Zrotation
												End Site
												{
													OFFSET -294.664337 0.000000 -0.113670
												}
											}
										}
									}
								}
								JOINT mixamorig:RightHandRing1
								{
									OFFSET -9.103600 -0.043076 -1.865134
									CHANNELS 6 Xposition Yposition Zposition Xrotation Yrotation Zrotation
									JOINT mixamorig:RightHandRing2
									{
										OFFSET -3.379288 0.000000 -0.001055
										CHANNELS 6 Xposition Yposition Zposition Xrotation Yrotation Zrotation
										JOINT mixamorig:RightHandRing3
										{
											OFFSET -2.889687 -0.000015 0.000379
											CHANNELS 6 Xposition Yposition Zposition Xrotation Yrotation Zrotation
											JOINT mixamorig:RightHandRing4
											{
												OFFSET -2.638809 -0.000015 0.000941
												CHANNELS 6 Xposition Yposition Zposition Xrotation Yrotation Zrotation
												End Site
												{
													OFFSET -263.880371 0.000000 0.516020
												}
											}
										}
									}
								}
								JOINT mixamorig:RightHandPinky1
								{
									OFFSET -8.076683 -0.486710 -3.806280
									CHANNELS 6 Xposition Yposition Zposition Xrotation Yrotation Zrotation
									JOINT mixamorig:RightHandPinky2
									{
										OFFSET -3.600014 -0.000015 -0.003747
										CHANNELS 6 Xposition Yposition Zposition Xrotation Yrotation Zrotation
										JOINT mixamorig:RightHandPinky3
										{
											OFFSET -2.099983 0.000000 -0.005739
											CHANNELS 6 Xposition Yposition Zposition Xrotation Yrotation Zrotation
											JOINT mixamorig:RightHandPinky4
											{
												OFFSET -2.115768 -0.000031 -0.003680
												CHANNELS 6 Xposition Yposition Zposition Xrotation Yrotation Zrotation
												End Site
												{
													OFFSET -211.577087 0.000000 -0.350686
												}
											}
										}
									}
								}
							}
						}
					}
				}
				JOINT mixamorig:LeftShoulder
				{
					OFFSET 4.570447 11.014725 -2.160855
					CHANNELS 6 Xposition Yposition Zposition Xrotation Yrotation Zrotation
					JOINT mixamorig:LeftArm
					{
						OFFSET 10.592371 -0.524597 -2.232119
						CHANNELS 6 Xposition Yposition Zposition Xrotation Yrotation Zrotation
						JOINT mixamorig:LeftForeArm
						{
							OFFSET 27.841532 -0.000031 0.000026
							CHANNELS 6 Xposition Yposition Zposition Xrotation Yrotation Zrotation
							JOINT mixamorig:LeftHand
							{
								OFFSET 28.328846 -0.000061 0.000022
								CHANNELS 6 Xposition Yposition Zposition Xrotation Yrotation Zrotation
								JOINT mixamorig:LeftHandThumb1
								{
									OFFSET 2.466141 -1.576172 2.681732
									CHANNELS 6 Xposition Yposition Zposition Xrotation Yrotation Zrotation
									JOINT mixamorig:LeftHandThumb2
									{
										OFFSET 3.217812 -1.872070 1.916482
										CHANNELS 6 Xposition Yposition Zposition Xrotation Yrotation Zrotation
										JOINT mixamorig:LeftHandThumb3
										{
											OFFSET 2.656029 -1.528778 1.514513
											CHANNELS 6 Xposition Yposition Zposition Xrotation Yrotation Zrotation
											JOINT mixamorig:LeftHandThumb4
											{
												OFFSET 2.020889 -1.154053 1.115139
												CHANNELS 6 Xposition Yposition Zposition Xrotation Yrotation Zrotation
												End Site
												{
													OFFSET 190.885437 -115.081749 130.048782
												}
											}
										}
									}
								}
								JOINT mixamorig:LeftHandIndex1
								{
									OFFSET 9.109314 -0.518021 2.259871
									CHANNELS 6 Xposition Yposition Zposition Xrotation Yrotation Zrotation
									JOINT mixamorig:LeftHandIndex2
									{
										OFFSET 3.699989 0.000000 -0.000322
										CHANNELS 6 Xposition Yposition Zposition Xrotation Yrotation Zrotation
										JOINT mixamorig:LeftHandIndex3
										{
											OFFSET 2.850006 0.000000 0.000352
											CHANNELS 6 Xposition Yposition Zposition Xrotation Yrotation Zrotation
											JOINT mixamorig:LeftHandIndex4
											{
												OFFSET 2.774864 -0.000031 -0.000027
												CHANNELS 6 Xposition Yposition Zposition Xrotation Yrotation Zrotation
												End Site
												{
													OFFSET 277.486267 0.000000 -0.009857
												}
											}
										}
									}
								}
								JOINT mixamorig:LeftHandMiddle1
								{
									OFFSET 9.533394 0.000061 0.000044
									CHANNELS 6 Xposition Yposition Zposition Xrotation Yrotation Zrotation
									JOINT mixamorig:LeftHandMiddle2
									{
										OFFSET 3.699989 -0.000015 -0.000231
										CHANNELS 6 Xposition Yposition Zposition Xrotation Yrotation Zrotation
										JOINT mixamorig:LeftHandMiddle3
										{
											OFFSET 2.949997 -0.000015 -0.000059
											CHANNELS 6 Xposition Yposition Zposition Xrotation Yrotation Zrotation
											JOINT mixamorig:LeftHandMiddle4
											{
												OFFSET 2.952896 0.000031 0.000063
												CHANNELS 6 Xposition Yposition Zposition Xrotation Yrotation Zrotation
												End Site
												{
													OFFSET 295.289337 0.000000 0.022810
												}
											}
										}
									}
								}
								JOINT mixamorig:LeftHandRing1
								{
									OFFSET 9.104523 -0.042999 -1.865074
									CHANNELS 6 Xposition Yposition Zposition Xrotation Yrotation Zrotation
									JOINT mixamorig:LeftHandRing2
									{
										OFFSET 3.150009 -0.000031 0.000043
										CHANNELS 6 Xposition Yposition Zposition Xrotation Yrotation Zrotation
										JOINT mixamorig:LeftHandRing3
										{
											OFFSET 2.949982 -0.000015 0.000040
											CHANNELS 6 Xposition Yposition Zposition Xrotation Yrotation Zrotation
											JOINT mixamorig:LeftHandRing4
											{
												OFFSET 2.644348 0.000000 0.000057
												CHANNELS 6 Xposition Yposition Zposition Xrotation Yrotation Zrotation
												End Site
												{
													OFFSET 264.434631 0.000000 0.012105
												}
											}
										}
									}
								}
								JOINT mixamorig:LeftHandPinky1
								{
									OFFSET 8.077789 -0.486847 -3.806259
									CHANNELS 6 Xposition Yposition Zposition Xrotation Yrotation Zrotation
									JOINT mixamorig:LeftHandPinky2
									{
										OFFSET 3.599953 0.000031 0.014727
										CHANNELS 6 Xposition Yposition Zposition Xrotation Yrotation Zrotation
										JOINT mixamorig:LeftHandPinky3
										{
											OFFSET 2.100021 0.000015 0.007705
											CHANNELS 6 Xposition Yposition Zposition Xrotation Yrotation Zrotation
											JOINT mixamorig:LeftHandPinky4
											{
												OFFSET 2.125504 0.000031 0.007517
												CHANNELS 6 Xposition Yposition Zposition Xrotation Yrotation Zrotation
												End Site
												{
													OFFSET 212.550781 0.000000 0.625752
												}
											}
										}
									}
								}
							}
						}
					}
				}
			}
		}
	}
	JOINT mixamorig:RightUpLeg
	{
		OFFSET -8.207787 -6.751648 -1.599560
		CHANNELS 6 Xposition Yposition Zposition Xrotation Yrotation Zrotation
		JOINT mixamorig:RightLeg
		{
			OFFSET -0.000002 -44.370117 0.345942
			CHANNELS 6 Xposition Yposition Zposition Xrotation Yrotation Zrotation
			JOINT mixamorig:RightFoot
			{
				OFFSET 0.000003 -44.423679 -3.043532
				CHANNELS 6 Xposition Yposition Zposition Xrotation Yrotation Zrotation
				JOINT mixamorig:RightToeBase
				{
					OFFSET -0.000002 -8.728671 10.710558
					CHANNELS 6 Xposition Yposition Zposition Xrotation Yrotation Zrotation
					JOINT mixamorig:RightToe_End
					{
						OFFSET -0.000001 -0.000679 9.278119
						CHANNELS 6 Xposition Yposition Zposition Xrotation Yrotation Zrotation
						End Site
						{
							OFFSET 0.000000 -0.067690 927.812134
						}
					}
				}
			}
		}
	}
	JOINT mixamorig:LeftUpLeg
	{
		OFFSET 8.207793 -6.751686 -1.599556
		CHANNELS 6 Xposition Yposition Zposition Xrotation Yrotation Zrotation
		JOINT mixamorig:LeftLeg
		{
			OFFSET -0.000004 -44.370014 0.346954
			CHANNELS 6 Xposition Yposition Zposition Xrotation Yrotation Zrotation
			JOINT mixamorig:LeftFoot
			{
				OFFSET -0.000001 -44.423672 -3.044401
				CHANNELS 6 Xposition Yposition Zposition Xrotation Yrotation Zrotation
				JOINT mixamorig:LeftToeBase
				{
					OFFSET -0.000002 -8.728669 10.710558
					CHANNELS 6 Xposition Yposition Zposition Xrotation Yrotation Zrotation
					JOINT mixamorig:LeftToe_End
					{
						OFFSET -0.000003 -0.000679 9.278133
						CHANNELS 6 Xposition Yposition Zposition Xrotation Yrotation Zrotation
						End Site
						{
							OFFSET 0.000000 -0.068021 927.813477
						}
					}
				}
			}
		}
	}
}
MOTION
Frames: 3
Frame Time: 0.033333
0.000006 104.270477 1.554256 0.000010 0.000003 -0.000113 -0.000005 10.181587 0.131522 0.000001 -0.000003 0.000084 -0.000000 9.893967 -1.470711 0.000001 0.000000 -0.000000 -0.000000 9.220802 -1.370642 0.000000 -0.000000 -0.000000 0.000001 16.740433 -2.049030 0.000000 -0.000000 -0.000000 0.000000 9.617859 1.685014 0.000000 0.000000 0.000000 0.000002 22.037384 7.501101 0.000000 -0.000000 0.000000 -4.569968 11.014880 -2.160881 0.000008 0.000001 -0.000038 -10.592829 -0.524822 -2.231803 66.432769 53.485299 -36.519188 -27.841461 0.000018 0.000609 178.822207 73.138410 -178.412382 -28.328838 0.000016 0.000023 -0.000325 -0.000042 0.000005 -2.464374 -1.573968 2.682300 -206.367117 -44.979374 -156.413449 -3.214803 -1.872451 1.924679 126.660817 -0.120103 141.687944 -2.654944 -1.527782 1.513003 155.817638 33.512129 15.159747 -2.018835 -1.152003 1.108052 -0.000002 0.000001 0.000005 -9.108388 -0.517687 2.260311 139.506668 19.927482 -51.059909 -3.700072 0.000181 0.001704 133.525622 19.330798 -43.214689 -2.850095 0.000276 -0.000062 135.227569 13.651706 -32.406785 -2.772166 -0.000021 -0.000019 -0.000000 0.000001 0.000001 -9.532581 0.000256 0.000366 123.447678 11.633557 -21.702936 -3.700027 0.000384 0.003998 103.491040 0.898756 -1.037173 -2.949980 0.000349 -0.001889 84.694530 -0.039093 0.041097 -2.946628 -0.000000 -0.000177 -0.000000 0.000005 -0.000002 -9.103678 -0.042735 -1.864748 121.807968 9.617702 -17.118221 -3.379214 0.000383 -0.000812 104.677553 -9.992880 12.909587 -2.889635 0.000402 0.000539 90.462891 -13.035401 13.109368 -2.638820 -0.000000 0.000929 -0.000002 0.000002 -0.000002 -8.076710 -0.486372 -3.805892 123.670574 5.812623 -10.583630 -3.599790 0.000351 -0.003448 123.673566 -21.751128 39.741162 -2.099701 0.000404 -0.005533 113.158981 -33.312485 48.844052 -2.115769 -0.000056 -0.003673 -0.000000 0.000002 -0.000003 4.570446 11.014691 -2.160851 -0.000018 0.000010 -0.000021 10.592484 -0.524549 -2.232365 44.903337 -60.091458 26.884907 27.841728 -0.000074 -0.000099 233.692464 -73.129114 248.620306 28.328840 -0.000014 0.000031 0.000020 -0.000091 -0.000001 2.466099 -1.576158 2.681887 -4.710693 130.498031 -51.503923 3.217793 -1.872039 1.916541 18.956640 140.581918 -84.940314 2.656036 -1.528763 1.514608 14.367093 154.873501 -90.316015 2.020879 -1.154083 1.115136 0.000003 0.000003 0.000004 9.109426 -0.517953 2.259881 156.873299 -24.399623 93.110621 3.700068 0.000146 -0.000447 93.512926 -25.473571 387.047750 2.850034 0.000102 0.000225 60.659101 -17.325174 10.186192 2.774909 -0.000015 -0.000034 -0.000001 0.000003 0.000000 9.533513 0.000274 -0.000008 135.622067 -17.329124 40.951895 3.700035 0.000179 -0.000375 83.325548 -12.159828 10.825912 2.950028 0.000037 -0.000181 48.766123 -8.442679 3.833597 2.952872 -0.000035 0.000042 -0.000004 -0.000002 0.000001 9.104634 -0.042747 -1.865154 133.441501 -15.581798 35.287090 3.149984 0.000214 -0.000153 79.494045 5.092619 -4.234750 2.949954 0.000105 -0.000123 38.494557 14.882463 -5.221906 2.644320 0.000029 0.000064 0.000002 -0.000002 -0.000001 8.077894 -0.486591 -3.806320 138.362530 -12.150100 32.784447 3.599916 0.000275 0.014534 95.232474 11.554933 -12.291335 2.099916 0.000134 0.007521 53.685676 27.443418 -14.021038 2.125509 -0.000027 0.007507 0.000000 -0.000001 0.000004 -8.207786 -6.751667 -1.599560 -0.077001 -0.000003 0.000080 -0.000002 -44.370110 0.345938 0.153719 -0.000000 -0.000000 0.000000 -44.423679 -3.043532 -0.076700 0.000000 -0.000002 -0.000006 -8.728667 10.710559 -0.000009 -0.000000 -0.000000 -0.000001 -0.000679 9.278123 0.000000 -0.000000 -0.000000 8.207792 -6.751710 -1.599556 -0.074518 -0.000003 0.000081 -0.000002 -44.370014 0.346960 0.148822 0.000002 0.000000 -0.000001 -44.423664 -3.044403 -0.074314 0.000000 -0.000002 -0.000004 -8.728671 10.710558 0.000007 -0.000000 -0.000000 0.000000 -0.000680 9.278137 -0.000000 0.000000 -0.000001 
0.000006 104.270477 1.554256 0.000010 0.000003 -0.000113 -0.000005 10.181587 0.131522 0.000001 -0.000003 0.000084 -0.000000 9.893967 -1.470711 0.000001 0.000000 -0.000000 -0.000000 9.220802 -1.370642 0.000000 -0.000000 -0.000000 0.000001 16.740433 -2.049030 0.000000 -0.000000 -0.000000 0.000000 9.617859 1.685014 0.000000 0.000000 0.000000 0.000002 22.037384 7.501101 0.000000 -0.000000 0.000000 -4.569968 11.014880 -2.160881 0.000008 0.000001 -0.000038 -10.592817 -0.524843 -2.231781 67.294282 58.856505 -41.159359 -27.841461 0.000002 0.000612 197.664691 71.965066 -204.159108 -28.328835 0.000007 0.000024 -0.000320 -0.000045 0.000006 -2.464431 -1.574096 2.682278 -175.821883 -53.405775 -119.700855 -3.214726 -1.872848 1.924736 168.141909 -41.940346 223.716262 -2.654436 -1.527920 1.513133 149.030056 -27.155384 -163.689281 -2.018819 -1.151986 1.108057 -0.000002 -0.000001 0.000002 -9.108342 -0.517799 2.260368 152.874824 21.500124 -76.580183 -3.700074 0.000141 0.001736 137.811279 23.868624 -57.374579 -2.850092 0.000241 -0.000046 133.269381 18.874352 -42.085242 -2.772149 -0.000018 -0.000018 -0.000000 0.000002 0.000000 -9.532587 0.000187 0.000473 141.330302 14.787465 -40.995745 -3.700027 0.000225 0.003760 43.214375 6.971720 -2.727114 -2.949972 -0.000112 -0.002014 -24.104108 -6.892186 -1.474877 -2.946630 0.000010 -0.000166 -0.000000 -0.000002 -0.000001 -9.103675 -0.042848 -1.864641 143.090988 10.075255 -29.464910 -3.378976 0.000092 -0.001112 24.373959 -49.119889 11.277809 -2.889559 -0.000108 0.000387 -26.857103 -29.475705 -7.167241 -2.638810 -0.000015 0.000947 0.000003 -0.000002 -0.000002 -8.076693 -0.486418 -3.805788 147.834691 2.595401 -8.534993 -3.599602 0.000013 -0.003683 18.404247 -73.131122 13.491891 -2.099841 -0.000161 -0.005735 -33.641028 -27.710398 -8.638646 -2.115795 -0.000043 -0.003681 0.000003 -0.000000 -0.000005 4.570446 11.014691 -2.160851 -0.000018 0.000010 -0.000021 10.592476 -0.524551 -2.232357 42.269770 -57.932176 24.155990 27.841768 -0.000055 -0.000116 222.148160 -74.662840 233.612004 28.328831 -0.000015 0.000021 0.000020 -0.000087 0.000000 2.466169 -1.576139 2.681881 -5.645758 151.251971 -65.910328 3.217844 -1.871983 1.916533 14.808499 160.029912 -97.468111 2.656104 -1.528518 1.514535 20.441175 195.457912 -145.049012 2.020911 -1.154068 1.115145 0.000002 0.000002 0.000001 9.109430 -0.517883 2.259838 124.895091 -32.968295 59.097898 3.700077 0.000081 -0.000442 73.374318 -28.843971 381.707253 2.850043 0.000097 0.000233 55.614211 -22.498991 11.976178 2.774887 -0.000032 -0.000033 0.000000 0.000000 0.000000 9.533506 0.000261 -0.000072 110.168137 -18.894357 26.803047 3.700035 0.000111 -0.000374 68.057241 -12.638082 8.550686 2.950037 0.000057 -0.000182 44.492501 -12.215927 5.013851 2.952882 -0.000001 0.000057 0.000000 0.000000 0.000003 9.104611 -0.042779 -1.865195 109.397057 -15.665978 21.992299 3.149991 0.000194 -0.000117 71.895657 6.245747 -4.530265 2.949942 0.000084 -0.000121 41.990142 15.452241 -5.960539 2.644324 0.000000 0.000054 0.000000 0.000001 0.000001 8.077847 -0.486595 -3.806379 111.870097 -10.919328 16.911215 3.599886 0.000252 0.014521 89.356100 13.938843 -13.478110 2.099900 0.000179 0.007493 67.184760 32.106260 -21.563990 2.125495 -0.000029 0.007543 -0.000002 0.000002 -0.000003 -8.207786 -6.751667 -1.599560 -0.077001 -0.000003 0.000080 -0.000002 -44.370110 0.345938 0.153719 -0.000000 -0.000000 0.000000 -44.423679 -3.043532 -0.076700 0.000000 -0.000002 -0.000006 -8.728667 10.710559 -0.000009 -0.000000 -0.000000 -0.000001 -0.000679 9.278123 0.000000 -0.000000 -0.000000 8.207792 -6.751710 -1.599556 -0.074518 -0.000003 0.000081 -0.000002 -44.370014 0.346960 0.148822 0.000002 0.000000 -0.000001 -44.423664 -3.044403 -0.074314 0.000000 -0.000002 -0.000004 -8.728671 10.710558 0.000007 -0.000000 -0.000000 0.000000 -0.000680 9.278137 -0.000000 0.000000 -0.000001 
0.000006 104.270477 1.554256 0.000010 0.000003 -0.000113 -0.000005 10.181587 0.131522 0.000001 -0.000003 0.000084 -0.000000 9.893967 -1.470711 0.000001 0.000000 -0.000000 -0.000000 9.220802 -1.370642 0.000000 -0.000000 -0.000000 0.000001 16.740433 -2.049030 0.000000 -0.000000 -0.000000 0.000000 9.617859 1.685014 0.000000 0.000000 0.000000 0.000002 22.037384 7.501101 0.000000 -0.000000 0.000000 -4.569968 11.014880 -2.160881 0.000008 0.000001 -0.000038 -10.592802 -0.524839 -2.231768 68.162720 61.063558 -43.507936 -27.841461 0.000018 0.000602 203.984679 72.977942 -212.046078 -28.328833 0.000006 0.000026 -0.000322 -0.000044 0.000006 -2.464406 -1.574101 2.682273 -173.948444 -55.806706 -119.049801 -3.214752 -1.872874 1.924747 173.991542 -41.588161 232.300034 -2.654435 -1.527926 1.513125 147.541621 -25.704220 -166.115788 -2.018839 -1.152003 1.108056 -0.000001 -0.000002 0.000007 -9.108229 -0.517877 2.260409 167.782887 24.296188 -127.337785 -3.700055 0.000119 0.001721 141.854915 19.944847 -53.841674 -2.850092 0.000289 -0.000074 130.924809 14.990737 -32.152180 -2.772188 -0.000010 -0.000021 -0.000001 0.000001 0.000001 -9.532569 0.000115 0.000482 148.484952 14.020833 -47.593940 -3.700061 0.000316 0.004109 127.468433 7.345735 -14.638728 -2.950101 0.000301 -0.001735 108.779997 18.149908 -25.134244 -2.946630 0.000015 -0.000156 -0.000005 0.000002 -0.000001 -9.103658 -0.042902 -1.864631 149.333439 10.689800 -37.521938 -3.379057 0.000409 -0.000704 131.864206 -21.501113 46.046748 -2.889343 0.000349 0.000527 105.563203 -45.681500 58.022273 -2.638799 -0.000016 0.000932 0.000002 0.000002 0.000002 -8.076700 -0.486477 -3.805760 152.555786 5.323430 -20.988470 -3.599720 0.000320 -0.003310 153.470512 -19.347657 71.919939 -2.099442 0.000198 -0.005340 -11.816605 -149.641289 -42.173751 -2.115769 -0.000053 -0.003679 0.000001 0.000001 -0.000003 4.570446 11.014691 -2.160851 -0.000018 0.000010 -0.000021 10.592472 -0.524558 -2.232352 37.088959 -59.409600 21.668558 27.841782 -0.000038 -0.000127 206.689925 -76.818181 213.314239 28.328840 -0.000030 0.000028 0.000017 -0.000089 -0.000000 2.466053 -1.576170 2.681902 -30.185259 158.455170 -29.219443 3.217751 -1.872033 1.916553 -9.507100 163.101885 -68.599312 2.656027 -1.528796 1.514633 -31.933351 193.654714 -64.262900 2.020887 -1.154058 1.115135 0.000004 0.000003 0.000007 9.109395 -0.517875 2.259748 88.582308 -22.307558 21.762748 3.700048 0.000077 -0.000432 62.417991 -24.682070 375.113006 2.850041 0.000075 0.000246 51.228779 -23.181595 11.231175 2.774863 -0.000060 -0.000022 0.000001 -0.000001 0.000001 9.533455 0.000216 -0.000092 84.800282 -13.421329 12.256825 3.700030 0.000125 -0.000401 67.211022 -13.329515 8.878460 2.950065 0.000063 -0.000180 61.403851 -21.919074 13.121095 2.952872 -0.000045 0.000064 -0.000000 0.000001 -0.000002 9.104569 -0.042850 -1.865230 84.695227 -11.971970 10.920277 3.150000 0.000167 -0.000134 72.613367 2.120268 -1.556875 2.949954 0.000171 -0.000121 59.070666 8.476612 -4.808013 2.644317 -0.000001 0.000056 0.000000 0.000000 0.000000 8.077814 -0.486691 -3.806436 87.214283 -8.274971 8.393107 3.599892 0.000252 0.014521 87.907349 15.718526 -14.877800 2.099836 0.000189 0.007497 87.928030 36.904052 -35.598867 2.125509 0.000015 0.007509 -0.000003 0.000001 0.000001 -8.207786 -6.751667 -1.599560 -0.077001 -0.000003 0.000080 -0.000002 -44.370110 0.345938 0.153719 -0.000000 -0.000000 0.000000 -44.423679 -3.043532 -0.076700 0.000000 -0.000002 -0.000006 -8.728667 10.710559 -0.000009 -0.000000 -0.000000 -0.000001 -0.000679 9.278123 0.000000 -0.000000 -0.000000 8.207792 -6.751710 -1.599556 -0.074518 -0.000003 0.000081 -0.000002 -44.370014 0.346960 0.148822 0.000002 0.000000 -0.000001 -44.423664 -3.044403 -0.074314 0.000000 -0.000002 -0.000004 -8.728671 10.710558 0.000007 -0.000000 -0.000000 0.000000 -0.000680 9.278137 -0.000000 0.000000 -0.000001 
